<svg width="350" height="50" viewBox="0 0 350 50" fill="none" xmlns="http://www.w3.org/2000/svg">
<g clip-path="url(#clip0_128_373)">
<circle cx="25" cy="25" r="25" fill="#3994FF"/>
<path d="M30.4166 15C30.4166 17.9916 27.9914 20.4167 24.9999 20.4167C22.0084 20.4167 19.5833 17.9916 19.5833 15C19.5833 12.0085 22.0084 9.58334 24.9999 9.58334C27.9914 9.58334 30.4166 12.0085 30.4166 15Z" stroke="white" stroke-width="2"/>
<path d="M35.4166 33.3333C35.4166 35.126 34.4014 36.867 32.5229 38.2087C30.6469 39.5488 27.9911 40.4167 24.9999 40.4167C22.0088 40.4167 19.3529 39.5488 17.4769 38.2087C15.5984 36.867 14.5833 35.126 14.5833 33.3333C14.5833 31.5407 15.5984 29.7997 17.4769 28.458C19.3529 27.1178 22.0088 26.25 24.9999 26.25C27.9911 26.25 30.6469 27.1178 32.5229 28.458C34.4014 29.7997 35.4166 31.5407 35.4166 33.3333Z" stroke="white" stroke-width="2"/>
<circle cx="85" cy="25" r="25" fill="#0A7AFF"/>
<path d="M100 34.495C100 35.035 99.8798 35.59 99.6245 36.13C99.369 36.67 99.0385 37.18 98.6028 37.66C97.8668 38.47 97.0557 39.055 96.1392 39.43C95.2378 39.805 94.2613 40 93.2098 40C91.6775 40 90.04 39.64 88.3125 38.905C86.5848 38.17 84.8573 37.18 83.1447 35.935C81.4171 34.675 79.7797 33.28 78.2173 31.735C76.67 30.175 75.2729 28.54 74.026 26.83C72.7942 25.12 71.8027 23.41 71.0816 21.715C70.3605 20.005 70 18.37 70 16.81C70 15.79 70.1803 14.815 70.5408 13.915C70.9014 13 71.4722 12.16 72.2684 11.41C73.2299 10.465 74.2814 10 75.3931 10C75.8137 10 76.2343 10.09 76.6099 10.27C77.0005 10.45 77.346 10.72 77.6164 11.11L81.1016 16.015C81.3721 16.39 81.5673 16.735 81.7025 17.065C81.8378 17.38 81.9128 17.695 81.9128 17.98C81.9128 18.34 81.8077 18.7 81.5974 19.045C81.4021 19.39 81.1167 19.75 80.7561 20.11L79.6144 21.295C79.4492 21.46 79.3741 21.655 79.3741 21.895C79.3741 22.015 79.3891 22.12 79.4191 22.24C79.4642 22.36 79.5093 22.45 79.5393 22.54C79.8097 23.035 80.2754 23.68 80.9364 24.46C81.6124 25.24 82.3335 26.035 83.1147 26.83C83.9258 27.625 84.707 28.36 85.5033 29.035C86.2845 29.695 86.9303 30.145 87.4412 30.415C87.5163 30.445 87.6063 30.49 87.7115 30.535C87.8317 30.58 87.952 30.595 88.0872 30.595C88.3425 30.595 88.5378 30.505 88.703 30.34L89.8448 29.215C90.2203 28.84 90.5808 28.555 90.9263 28.375C91.2718 28.165 91.6175 28.06 91.993 28.06C92.2785 28.06 92.5788 28.12 92.9093 28.255C93.2398 28.39 93.5853 28.585 93.961 28.84L98.9333 32.365C99.324 32.635 99.5943 32.95 99.7597 33.325C99.9098 33.7 100 34.075 100 34.495Z" stroke="white" stroke-width="2" stroke-miterlimit="10"/>
<circle cx="145" cy="25" r="25" fill="#0058C1"/>
<path d="M137.879 9.58334C136.059 9.58334 134.583 11.0588 134.583 12.8788V21.6667C134.583 27.4197 139.247 32.0833 145 32.0833C150.753 32.0833 155.417 27.4197 155.417 21.6667V12.8788C155.417 11.0588 153.941 9.58334 152.121 9.58334H137.879Z" stroke="white" stroke-width="2"/>
<path d="M145 33.3333V35" stroke="white" stroke-width="2" stroke-linecap="round"/>
<path d="M150 36.25H140C138.849 36.25 137.917 37.1827 137.917 38.3333C137.917 39.4839 138.849 40.4167 140 40.4167H150C151.151 40.4167 152.083 39.4839 152.083 38.3333C152.083 37.1827 151.151 36.25 150 36.25Z" stroke="white" stroke-width="2"/>
<path d="M134.167 13.3333C131.865 13.3333 130 15.1988 130 17.5V18.0474C130 19.2976 130.497 20.4967 131.381 21.3807L135 25" stroke="white" stroke-width="2" stroke-linecap="round" stroke-linejoin="round"/>
<path d="M155.833 13.3333C158.134 13.3333 160 15.1988 160 17.5V18.0474C160 19.2976 159.503 20.4967 158.619 21.3807L155 25" stroke="white" stroke-width="2" stroke-linecap="round" stroke-linejoin="round"/>
<circle cx="205" cy="25" r="25" fill="#FF6986"/>
<path d="M215.5 20.125H203.5C201.636 20.125 200.125 21.636 200.125 23.5V35.5C200.125 37.364 201.636 38.875 203.5 38.875H215.5C217.364 38.875 218.875 37.364 218.875 35.5V23.5C218.875 21.636 217.364 20.125 215.5 20.125Z" stroke="white" stroke-width="2.5"/>
<path fill-rule="evenodd" clip-rule="evenodd" d="M199 13.75H202C204.185 13.75 205.597 13.7548 206.638 13.8947C207.614 14.0259 207.92 14.2377 208.091 14.409C208.262 14.5803 208.474 14.8862 208.605 15.8621C208.71 16.6426 208.739 17.6322 208.747 19H210.997C210.979 15.7375 210.835 13.9706 209.682 12.818C208.364 11.5 206.243 11.5 202 11.5H199C194.757 11.5 192.636 11.5 191.318 12.818C190 14.136 190 16.2574 190 20.5V23.5C190 27.7426 190 29.8639 191.318 31.182C192.636 32.5 194.757 32.5 199 32.5V30.25C196.815 30.25 195.403 30.2452 194.362 30.1053C193.386 29.9742 193.08 29.7622 192.909 29.5911C192.738 29.4198 192.526 29.1139 192.395 28.1379C192.255 27.0973 192.25 25.6849 192.25 23.5V20.5C192.25 18.3151 192.255 16.9027 192.395 15.8621C192.526 14.8862 192.738 14.5803 192.909 14.409C193.08 14.2377 193.386 14.0259 194.362 13.8947C195.403 13.7548 196.815 13.75 199 13.75Z" fill="white"/>
<circle cx="265" cy="25" r="25" fill="#FF4166"/>
<circle cx="260.5" cy="25" r="1.5" stroke="white" stroke-width="2"/>
<circle cx="257.5" cy="16" r="3" stroke="white" stroke-width="2"/>
<circle cx="265" cy="13" r="4.5" stroke="white" stroke-width="2"/>
<circle cx="272.5" cy="16" r="3" stroke="white" stroke-width="2"/>
<path fill-rule="evenodd" clip-rule="evenodd" d="M269.164 14.7102C269.38 14.1829 269.5 13.6054 269.5 13C269.5 12.9021 269.497 12.805 269.491 12.7088C270.044 12.8888 270.583 13.1012 271.104 13.3437C270.467 13.6792 269.965 14.2373 269.702 14.9146C269.525 14.8425 269.345 14.7743 269.164 14.7102ZM260.836 14.7102C260.62 14.1829 260.5 13.6054 260.5 13C260.5 12.9021 260.503 12.805 260.509 12.7088C259.956 12.8888 259.417 13.1012 258.896 13.3437C259.533 13.6792 260.035 14.2373 260.298 14.9146C260.475 14.8425 260.655 14.7743 260.836 14.7102ZM255.569 18.2959C255.027 17.8396 254.649 17.1949 254.535 16.4628C252.036 19.068 250.5 22.6046 250.5 26.5C250.5 34.5081 256.992 41 265 41C273.008 41 279.5 34.5081 279.5 26.5C279.5 22.6046 277.964 19.068 275.465 16.4628C275.351 17.1949 274.973 17.8396 274.431 18.2959C276.343 20.4913 277.5 23.3605 277.5 26.5C277.5 33.4035 271.904 39 265 39C258.096 39 252.5 33.4035 252.5 26.5C252.5 23.3605 253.657 20.4913 255.569 18.2959Z" fill="white"/>
<circle cx="269.5" cy="25" r="1.5" stroke="white" stroke-width="2"/>
<path fill-rule="evenodd" clip-rule="evenodd" d="M259.601 31C258.948 31 258.574 31.7154 259.024 32.1881C260.526 33.7663 262.648 34.75 264.999 34.75C267.351 34.75 269.472 33.7663 270.975 32.1881C271.425 31.7154 271.051 31 270.398 31V31C270.164 31 269.943 31.1015 269.778 31.267C268.556 32.492 266.866 33.25 264.999 33.25C263.132 33.25 261.442 32.492 260.22 31.267C260.055 31.1015 259.834 31 259.601 31V31Z" fill="white"/>
<circle cx="325" cy="25" r="25" fill="#FF214B"/>
<path d="M332.5 11.125H317.5C313.979 11.125 311.125 13.9792 311.125 17.5V32.5C311.125 36.0208 313.979 38.875 317.5 38.875H332.5C336.021 38.875 338.875 36.0208 338.875 32.5V17.5C338.875 13.9792 336.021 11.125 332.5 11.125Z" stroke="white" stroke-width="2"/>
<path fill-rule="evenodd" clip-rule="evenodd" d="M317.884 29.2339C317.884 29.8552 318.387 30.3589 319.009 30.3589H323.251C323.873 30.3589 324.376 29.8552 324.376 29.2339C324.376 28.6126 323.873 28.1089 323.251 28.1089H321.725L325.348 24.4853L327.494 26.6309C327.933 27.0703 328.646 27.0703 329.085 26.6309L333.858 21.858C334.297 21.4187 334.297 20.7063 333.858 20.267C333.419 19.8277 332.706 19.8277 332.267 20.267L328.289 24.2444L326.144 22.0988C325.705 21.6595 324.992 21.6595 324.553 22.0988L320.134 26.5178V24.9913C320.134 24.37 319.63 23.8663 319.009 23.8663C318.387 23.8663 317.884 24.37 317.884 24.9913V29.2339Z" fill="white"/>
</g>
<defs>
<clipPath id="clip0_128_373">
<rect width="350" height="50" fill="white"/>
</clipPath>
</defs>
</svg>
